<?xml version="1.0" standalone="no"?>
<!DOCTYPE svg PUBLIC "-//W3C//DTD SVG 20010904//EN"
 "http://www.w3.org/TR/2001/REC-SVG-20010904/DTD/svg10.dtd">
<svg version="1.0" xmlns="http://www.w3.org/2000/svg"
 width="533.000000pt" height="333.000000pt" viewBox="0 0 533.000000 333.000000"
 preserveAspectRatio="xMidYMid meet">

<g transform="translate(0.000000,333.000000) scale(0.100000,-0.100000)"
fill="#000000" stroke="none">
<path d="M0 1665 l0 -1665 2665 0 2665 0 0 1665 0 1665 -2665 0 -2665 0 0
-1665z m4991 878 c13 -16 12 -17 -3 -4 -17 13 -22 21 -14 21 2 0 10 -8 17 -17z
m-52 1 c38 -8 65 -44 56 -74 -9 -27 -23 -25 -35 5 -6 17 -17 25 -32 25 -47 0
-266 -140 -365 -233 -35 -33 -56 -46 -65 -41 -7 5 -25 7 -40 5 -20 -2 -28 2
-28 13 0 9 -7 16 -15 16 -8 0 -15 3 -15 8 1 15 67 80 130 129 75 58 96 70 165
96 158 58 182 63 244 51z m-991 -47 c10 -8 -11 -33 -86 -107 -138 -135 -263
-304 -459 -618 -21 -34 -26 -21 -8 23 22 52 12 54 -17 3 -59 -100 -62 -112
-63 -186 -1 -53 -5 -76 -15 -83 -23 -14 -30 -11 -30 11 0 11 -7 20 -15 20 -8
0 -15 5 -15 10 0 20 -19 10 -23 -12 -2 -13 -5 21 -6 75 -1 66 4 109 13 130 8
18 16 39 19 47 2 8 9 -32 14 -90 8 -79 11 -93 13 -55 l2 50 13 -70 12 -70 2
107 c0 59 5 109 10 112 5 3 32 47 61 98 56 98 254 395 325 488 24 30 57 69 75
85 18 17 -8 -24 -57 -90 -224 -300 -403 -583 -403 -637 0 -31 2 -30 40 36 23
38 91 145 152 239 62 94 113 176 114 183 6 42 216 306 238 298 7 -3 19 2 26
11 13 16 42 13 68 -8z m-671 -7 c-3 -11 -1 -23 4 -26 5 -3 -5 -26 -22 -51 -18
-25 -32 -53 -33 -62 -1 -9 -25 -58 -55 -110 -120 -208 -214 -448 -262 -671
-13 -58 -23 -106 -23 -106 -1 -1 -11 -5 -23 -8 -51 -16 -109 152 -116 339 -3
55 -2 91 0 80 18 -81 25 -95 43 -95 24 0 33 -17 55 -110 18 -74 19 -74 27 -40
20 84 61 201 68 191 3 -6 24 33 45 86 21 54 69 160 107 235 37 76 68 141 68
145 0 3 -10 -3 -23 -15 -13 -12 -26 -19 -30 -16 -6 6 -119 -224 -152 -309 -10
-26 -20 -45 -23 -42 -8 7 24 84 115 279 84 181 102 233 44 131 -32 -56 -59
-76 -41 -31 14 37 59 126 87 169 27 43 51 55 107 56 34 1 38 -1 33 -19z m1005
-7 c21 -19 24 -42 6 -44 -7 -1 -19 -2 -27 -3 -7 0 -33 -39 -57 -86 -23 -47
-43 -82 -43 -79 -2 21 87 229 97 229 3 0 14 -7 24 -17z m-2793 -109 c-35 -26
-108 -90 -161 -142 -54 -53 -100 -93 -103 -91 -7 8 99 130 150 173 50 41 153
106 168 106 5 0 -19 -21 -54 -46z m1254 -159 c-2 -49 -7 -121 -12 -160 -8 -65
-8 -60 -10 70 -1 77 -3 168 -4 203 -2 35 0 66 3 69 12 12 26 -99 23 -182z
m-67 -4 c4 -111 3 -114 -10 -69 -17 58 -30 193 -20 209 15 25 27 -28 30 -140z
m104 19 c0 -80 -4 -130 -10 -130 -6 0 -10 45 -10 114 0 103 5 146 16 146 2 0
4 -58 4 -130z m484 30 c-14 -47 -38 -152 -54 -235 -15 -82 -29 -136 -29 -119
-2 64 90 456 104 442 2 -1 -8 -41 -21 -88z m1652 73 c-15 -43 -91 -95 -178
-123 -49 -15 -88 -27 -88 -25 0 2 33 18 73 37 39 19 97 56 127 81 59 50 76 57
66 30z m-1462 -9 c3 -8 -7 -41 -22 -72 -16 -31 -39 -83 -52 -115 -15 -39 -26
-55 -33 -48 -14 14 7 91 49 179 35 73 47 85 58 56z m-1239 -28 c20 -14 15 -48
-7 -44 -8 2 -21 -27 -35 -82 -11 -47 -22 -76 -22 -66 -2 31 32 206 39 206 3 0
15 -6 25 -14z m2548 -116 c-18 -11 -45 -22 -60 -25 -22 -5 -18 0 17 19 53 30
90 35 43 6z m-2144 -71 c-31 -55 -32 -47 -1 28 9 23 20 39 25 34 4 -4 -7 -32
-24 -62z m-1607 -97 c-77 -138 -126 -255 -173 -416 -21 -70 -40 -131 -43 -134
-23 -23 -25 97 -2 183 47 182 122 334 220 449 72 85 71 50 -2 -82z m1645 41
c-3 -10 -5 -4 -5 12 0 17 2 24 5 18 2 -7 2 -21 0 -30z m2138 -13 c14 -6 6 -7
-25 -4 -25 3 -58 1 -75 -5 -27 -8 -28 -9 -6 -10 13 -1 22 -4 19 -7 -7 -6 -191
-33 -233 -34 l-29 0 24 17 c48 34 276 64 325 43z m-2128 -82 c-2 -13 -4 -3 -4
22 0 25 2 35 4 23 2 -13 2 -33 0 -45z m2196 21 c18 -23 24 -89 7 -89 -5 0 -10
9 -10 20 0 34 -21 67 -53 84 l-32 17 35 -6 c19 -3 43 -15 53 -26z m-3206 -5
c-4 -23 -2 -25 20 -19 25 6 25 6 -7 -34 -17 -23 -36 -41 -41 -41 -10 0 -48 18
-58 27 -5 3 79 93 87 93 2 0 2 -12 -1 -26z m1080 -56 c-2 -13 -4 -5 -4 17 -1
22 1 32 4 23 2 -10 2 -28 0 -40z m-394 15 c-7 -2 -19 -2 -25 0 -7 3 -2 5 12 5
14 0 19 -2 13 -5z m258 -30 c-12 -20 -14 -14 -5 12 4 9 9 14 11 11 3 -2 0 -13
-6 -23z m104 -103 c7 -8 25 -73 40 -143 26 -127 29 -171 8 -132 -15 27 -83
350 -82 384 1 14 6 -1 11 -34 5 -33 16 -67 23 -75z m-335 110 c0 -5 -5 -10
-11 -10 -5 0 -7 5 -4 10 3 6 8 10 11 10 2 0 4 -4 4 -10z m209 -79 c-7 -23 -14
-39 -16 -37 -3 2 1 23 8 45 7 23 14 39 16 37 3 -2 -1 -23 -8 -45z m1246 32
c-26 -65 -69 -186 -81 -225 -8 -27 -19 -48 -23 -48 -5 0 -16 12 -25 26 -16 24
-16 28 0 77 27 83 70 161 96 173 34 17 41 16 33 -3z m1076 -10 c-12 -20 -14
-14 -5 12 4 9 9 14 11 11 3 -2 0 -13 -6 -23z m-1724 -15 c-3 -8 -6 -5 -6 6 -1
11 2 17 5 13 3 -3 4 -12 1 -19z m481 -34 c-19 -20 -42 -34 -49 -32 -9 3 3 17
30 36 58 42 64 40 19 -4z m472 -109 c6 -38 14 -80 17 -92 3 -16 1 -23 -10 -23
-15 0 -21 35 -31 190 -6 81 1 59 24 -75z m-1573 63 c-3 -8 -6 -5 -6 6 -1 11 2
17 5 13 3 -3 4 -12 1 -19z m2303 19 c0 -2 -15 -16 -32 -33 l-33 -29 29 33 c28
30 36 37 36 29z m-2411 -128 c-11 -57 -18 -119 -15 -137 3 -19 1 -30 -5 -27
-15 10 -10 92 12 187 12 49 23 88 25 86 2 -3 -6 -51 -17 -109z m98 69 c-3 -8
-6 -5 -6 6 -1 11 2 17 5 13 3 -3 4 -12 1 -19z m2243 -13 c0 -2 -10 -9 -22 -15
-22 -11 -22 -10 -4 4 21 17 26 19 26 11z m-2859 -137 c-6 -45 -11 -98 -11
-120 0 -27 -4 -38 -15 -38 -23 0 -46 43 -41 76 24 145 29 164 47 169 10 4 20
12 20 18 1 7 3 4 6 -6 3 -10 0 -55 -6 -99z m320 -7 c32 -71 34 -81 17 -81 -11
0 -52 112 -65 175 -4 22 0 14 48 -94z m-430 32 c-20 -37 -40 -58 -47 -50 -4 4
5 21 21 37 33 34 40 38 26 13z m-69 -54 c29 -15 58 -87 56 -139 0 -25 -3 -35
-5 -22 -2 12 -9 22 -14 22 -5 0 -6 12 -3 28 7 24 6 26 -9 13 -15 -12 -17 -11
-17 3 0 10 -4 15 -9 12 -16 -10 -42 42 -35 69 7 28 8 29 36 14z m-831 -78 c0
-27 2 -31 8 -17 4 11 8 -61 9 -160 1 -98 3 -212 4 -251 2 -43 -1 -74 -7 -75
-17 -2 -54 73 -70 144 -25 110 -18 296 14 380 15 39 41 26 42 -21z m154 -511
c3 -6 -1 -7 -9 -4 -18 7 -21 14 -7 14 6 0 13 -4 16 -10z m1026 -46 c25 -12 28
-18 19 -29 -9 -11 -17 -12 -30 -5 -32 17 -78 11 -100 -12 -36 -39 -23 -96 29
-118 25 -10 35 -9 60 3 24 12 32 13 41 2 16 -19 -13 -37 -70 -43 -46 -4 -52
-2 -85 31 -55 55 -48 127 18 167 39 24 78 25 118 4z m139 -73 l0 -90 47 -3
c36 -2 49 -7 51 -20 3 -16 -5 -18 -67 -18 l-71 0 0 110 c0 103 1 110 20 110
19 0 20 -7 20 -89z m352 50 c41 -46 39 -102 -6 -147 -29 -29 -41 -34 -81 -34
-40 0 -52 5 -81 34 -78 78 -17 194 96 183 34 -4 51 -12 72 -36z m201 -38 l57
-77 0 77 c0 70 2 77 20 77 19 0 20 -7 20 -110 0 -103 -1 -110 -20 -110 -13 0
-38 25 -72 70 l-53 71 -3 -71 c-3 -62 -5 -70 -22 -70 -19 0 -20 7 -20 110 0
99 2 110 18 110 11 0 41 -31 75 -77z m347 57 c0 -18 -7 -20 -60 -20 -57 0 -60
-1 -60 -25 0 -24 3 -25 55 -25 48 0 55 -2 55 -20 0 -18 -7 -20 -55 -20 -54 0
-55 0 -55 -30 l0 -30 60 0 c47 0 60 -3 60 -15 0 -12 -16 -15 -80 -15 l-80 0 0
110 0 110 80 0 c73 0 80 -2 80 -20z"/>
<path d="M4784 2462 c-92 -48 -102 -63 -14 -21 95 47 99 49 79 49 -8 0 -37
-13 -65 -28z"/>
<path d="M3811 2406 c-124 -141 -128 -156 -7 -31 58 61 105 113 106 118 1 20
-23 -1 -99 -87z"/>
<path d="M3188 2417 c-23 -33 -80 -149 -76 -152 2 -2 24 37 50 86 46 87 55
111 26 66z"/>
<path d="M2452 857 c-36 -38 -28 -88 19 -112 39 -21 56 -19 84 10 31 30 33 77
5 105 -28 28 -81 26 -108 -3z"/>
</g>
</svg>
